<svg xmlns="http://www.w3.org/2000/svg" viewBox="0 0 512 512"><defs><style>.cls-1{fill:#00327f;}.cls-2{isolation:isolate;}.cls-3{fill:#fff;}</style></defs><title>資產 1</title><g id="圖層_2" data-name="圖層 2"><g id="圖層_1-2" data-name="圖層 1"><rect class="cls-1" width="512" height="512" rx="99.56"/><g class="cls-2"><path class="cls-3" d="M296.79,194.12H208.22l-23.46,58.75H153.69L236,60.62h34l82.3,192.25H319.93Zm-7.6-19.41-11.56-29.38c-8.93-21.77-16.53-42.75-24.46-65h-1.32c-7.6,22.55-15.54,43.27-24.13,65l-11.9,29.38Z"/></g><g class="cls-2"><path class="cls-3" d="M108.4,253.09H248.2v20.45H139.14v60.33H231v20.72H139.14v70H251.83v20.72H108.4Z"/></g><g class="cls-2"><path class="cls-3" d="M262.33,417l18.18-16.52a107.74,107.74,0,0,0,67.09,23.87c31.73,0,50.9-12.59,50.9-31.48,0-19.67-17.52-26-40.32-34.1l-35-12.06c-22.47-7.61-49.24-21.25-49.24-49.31,0-29.64,32.39-51.15,76.34-51.15,28.76,0,54.2,9.71,71.39,23.87l-16.19,15.48a89.82,89.82,0,0,0-55.2-18.1c-27.43,0-45.27,11-45.27,28.33,0,18.62,21.15,25.7,40,32l34.7,11.81c28.09,9.7,49.9,22.82,49.9,51.4,0,30.43-31.73,54.56-82.29,54.56C312.9,445.62,283.48,434.6,262.33,417Z"/></g></g></g></svg>