<?xml version="1.0" encoding="utf-8"?>
<!-- Generator: Adobe Illustrator 24.0.1, SVG Export Plug-In . SVG Version: 6.00 Build 0)  -->
<svg version="1.1" id="Capa_1" xmlns="http://www.w3.org/2000/svg" xmlns:xlink="http://www.w3.org/1999/xlink" x="0px" y="0px"
	 viewBox="0 0 477.9 477.9" style="enable-background:new 0 0 477.9 477.9;" xml:space="preserve">
<style type="text/css">
	.st0{fill:#00327F;}
</style>
<g>
	<g>
		<path class="st0" d="M238.9,0C107,0,0,107,0,238.9s107,238.9,238.9,238.9s238.9-107,238.9-238.9S370.9,0,238.9,0z M320.4,403.9
			c-6.2,7.1-16.9,7.9-24.1,1.7c-0.2-0.1-0.3-0.3-0.5-0.5L125.1,251.6c-7-6.3-7.6-17.1-1.3-24.1c0.4-0.4,0.8-0.9,1.3-1.3L295.8,72.7
			c6.9-6.4,17.7-6.1,24.1,0.8s6.1,17.7-0.8,24.1c-0.2,0.2-0.3,0.3-0.5,0.5L162.1,238.9l156.5,140.9
			C325.7,386,326.5,396.8,320.4,403.9z"/>
	</g>
</g>
</svg>
