<?xml version="1.0" encoding="utf-8"?>
<!-- Generator: Adobe Illustrator 24.0.1, SVG Export Plug-In . SVG Version: 6.00 Build 0)  -->
<svg version="1.1" id="Capa_1" xmlns="http://www.w3.org/2000/svg" xmlns:xlink="http://www.w3.org/1999/xlink" x="0px" y="0px"
	 viewBox="0 0 483.3 483.3" style="enable-background:new 0 0 483.3 483.3;" xml:space="preserve">
<style type="text/css">
	.st0{fill:#9F9F9F;}
</style>
<g>
	<path class="st0" d="M481.4,263.9v167c0,28.9-23.5,52.4-52.4,52.4H53.6c-28.9,0-52.4-23.5-52.4-52.4V56c0-28.9,23.5-52.4,52.4-52.4
		h167.4c-9,9.2-15,21.5-16.3,35H53.6c-9.6,0-17.4,7.8-17.4,17.4v374.9c0,9.6,7.8,17.4,17.4,17.4H429c9.6,0,17.4-7.8,17.4-17.4V280.2
		C459.5,278.9,471.7,273.3,481.4,263.9z M277.9,52.5h114.5L207.1,237.8c-10.3,10.2-10.3,26.9,0,37.1c10.3,10.3,26.9,10.3,37.1,0
		L429.5,89.7v114.5c0,14.5,11.8,26.3,26.3,26.3c7.2,0,13.8-2.9,18.6-7.7c4.8-4.8,7.7-11.3,7.7-18.6V26.3C482,11.8,470.2,0,455.7,0
		H277.9c-14.5,0-26.3,11.8-26.3,26.3C251.6,40.8,263.4,52.5,277.9,52.5z"/>
</g>
</svg>
