<?xml version="1.0" encoding="utf-8"?>
<!-- Generator: Adobe Illustrator 24.0.1, SVG Export Plug-In . SVG Version: 6.00 Build 0)  -->
<svg version="1.1" id="_x31__x2C_5" xmlns="http://www.w3.org/2000/svg" xmlns:xlink="http://www.w3.org/1999/xlink" x="0px"
	 y="0px" viewBox="0 0 512 512" style="enable-background:new 0 0 512 512;" xml:space="preserve">
<style type="text/css">
	.st0{fill:#9F9F9F;}
</style>
<g>
	<path class="st0" d="M357.3,256c-4.1,0-8.2-1.6-11.3-4.7c-6.3-6.3-6.3-16.4,0-22.6l74.7-74.7c6.3-6.3,16.4-6.3,22.6,0
		s6.3,16.4,0,22.6l-74.7,74.7C365.5,254.4,361.4,256,357.3,256L357.3,256z"/>
</g>
<g>
	<path class="st0" d="M410.7,256h-53.3c-8.8,0-16-7.2-16-16v-53.3c0-8.8,7.2-16,16-16s16,7.2,16,16V224h37.3c8.8,0,16,7.2,16,16
		C426.7,248.8,419.5,256,410.7,256z"/>
</g>
<g>
	<path class="st0" d="M272,512H48c-26.5,0-48-21.5-48-48V304c0-26.5,21.5-48,48-48h224c26.5,0,48,21.5,48,48v160
		C320,490.5,298.5,512,272,512z M48,288c-8.8,0-16,7.2-16,16v160c0,8.8,7.2,16,16,16h224c8.8,0,16-7.2,16-16V304c0-8.8-7.2-16-16-16
		H48z"/>
</g>
<g>
	<path class="st0" d="M304,362.3H16c-8.8,0-16-7.2-16-16c0-8.8,7.2-16,16-16h288c8.8,0,16,7.2,16,16
		C320,355.2,312.8,362.3,304,362.3z"/>
</g>
<g>
	<path class="st0" d="M453.3,469.3h-74.7c-8.8,0-16-7.2-16-16s7.2-16,16-16h74.7c14.7,0,26.7-12,26.7-26.7v-352
		C480,44,468,32,453.3,32H58.7C44,32,32,44,32,58.7v138.7c0,8.8-7.2,16-16,16s-16-7.2-16-16V58.7C0,26.3,26.3,0,58.7,0h394.7
		C485.7,0,512,26.3,512,58.7v352C512,443,485.7,469.3,453.3,469.3z"/>
</g>
<g>
	<path class="st0" d="M496,106.7H16c-8.8,0-16-7.2-16-16s7.2-16,16-16h480c8.8,0,16,7.2,16,16S504.8,106.7,496,106.7z"/>
</g>
</svg>
