<?xml version="1.0" encoding="utf-8"?>
<!-- Generator: Adobe Illustrator 24.0.1, SVG Export Plug-In . SVG Version: 6.00 Build 0)  -->
<svg version="1.1" id="Capa_1" xmlns="http://www.w3.org/2000/svg" xmlns:xlink="http://www.w3.org/1999/xlink" x="0px" y="0px"
	 viewBox="0 0 490.9 490.9" style="enable-background:new 0 0 490.9 490.9;" xml:space="preserve">
<style type="text/css">
	.st0{fill:#00327F;}
</style>
<g>
	<g>
		<path class="st0" d="M245.4,0C110.1,0,0,110.1,0,245.4s110.1,245.4,245.4,245.4s245.4-110.1,245.4-245.4S380.8,0,245.4,0z
			 M338.4,253.1l-128,128c-2.1,2.1-4.8,3.1-7.6,3.1s-5.5-1-7.6-3.1c-4.2-4.2-4.2-10.9,0-15.1l120.4-120.4L195.3,125.1
			c-4.2-4.2-4.2-10.9,0-15.1s10.9-4.2,15.1,0l128,128C342.6,242.2,342.6,248.9,338.4,253.1z"/>
	</g>
</g>
</svg>
